<?xml version="1.0" standalone="no"?>
<!DOCTYPE svg PUBLIC "-//W3C//DTD SVG 20010904//EN"
 "http://www.w3.org/TR/2001/REC-SVG-20010904/DTD/svg10.dtd">
<svg version="1.0" xmlns="http://www.w3.org/2000/svg"
 width="512.000000pt" height="512.000000pt" viewBox="0 0 512.000000 512.000000"
 preserveAspectRatio="xMidYMid meet">
<metadata>
Created by potrace 1.14, written by Peter Selinger 2001-2017
</metadata>
<g transform="translate(0.000000,512.000000) scale(0.100000,-0.100000)"
fill="#000000" stroke="none">
<path d="M888 5100 c-115 -24 -176 -44 -278 -94 -93 -44 -229 -143 -299 -215
-156 -163 -265 -384 -300 -606 -6 -35 -9 -642 -10 -1470 0 -1145 3 -1427 14
-1501 42 -279 199 -538 430 -709 28 -21 68 -60 90 -88 61 -79 171 -183 239
-228 77 -51 229 -125 287 -139 208 -52 104 -49 1519 -46 718 1 1319 5 1335 9
17 3 37 8 45 10 8 2 29 7 45 11 223 54 462 211 595 391 21 28 82 89 135 134
53 46 118 110 143 143 114 143 196 327 229 508 10 57 11 2327 0 2395 -7 46
-12 68 -36 158 -50 184 -197 402 -356 527 -76 59 -93 76 -140 135 -53 66 -77
91 -157 156 -37 30 -89 84 -116 119 -126 166 -309 294 -517 364 -164 55 -153
55 -1535 55 -1195 -1 -1280 -2 -1362 -19z"/>
</g>
</svg>
